<svg width="559" height="142" viewBox="0 0 559 142" fill="none" xmlns="http://www.w3.org/2000/svg">
<path d="M1.16797 2.5625H0.667969V3.0625V139V139.5H1.16797H20.6992H21.1992V139V37.0624L26.2586 43.6977L26.2676 43.7094L26.2772 43.7206L61.7264 84.9315L62.1059 85.3727L62.4849 84.9311L97.9341 43.6225L97.9461 43.6085L97.9571 43.5936L102.816 37.0047V139V139.5H103.316H122.848H123.348V139V3.0625V2.5625H122.848H110.348H110.119L109.97 2.73503L62.1047 57.964L14.0452 2.73428L13.8957 2.5625H13.668H1.16797ZM165.355 20.1022L165.354 20.1037C159.64 26.2117 155.179 33.5946 151.969 42.244C148.755 50.9014 147.152 60.5644 147.152 71.2266C147.152 92.2913 153.207 109.285 165.355 122.156L165.356 122.156C177.31 134.767 192.909 141.062 212.105 141.062C231.366 141.062 246.934 134.768 258.759 122.154C270.843 109.348 276.863 92.3545 276.863 71.2266C276.863 50.0978 270.842 33.0399 258.76 20.104C246.871 7.36142 231.303 1 212.105 1C192.972 1 177.373 7.36178 165.355 20.1022ZM245.688 34.6094L246.09 34.3125L245.688 34.6095C252.772 44.205 256.332 56.4309 256.332 71.3242C256.332 86.0865 252.772 98.181 245.69 107.646L245.689 107.646C237.719 118.316 226.546 123.656 212.105 123.656C197.665 123.656 186.459 118.316 178.423 107.645C171.275 98.0494 167.684 85.8893 167.684 71.1289C167.684 56.3678 171.276 44.2074 178.424 34.6112L178.426 34.6094C186.396 23.8107 197.601 18.4062 212.105 18.4062C226.544 18.4062 237.717 23.8101 245.688 34.6094ZM282.711 2.5625H281.977L282.246 3.24566L335.761 139.183L335.886 139.5H336.227H354.977H355.317L355.442 139.183L408.957 3.24566L409.226 2.5625H408.492H388.18H387.835L387.712 2.88479L345.698 113.377L303.491 2.88408L303.368 2.5625H303.023H282.711ZM419.43 2.5625H418.93V3.0625V139V139.5H419.43H438.961H439.461V139V3.0625V2.5625H438.961H419.43ZM469.234 2.5625H468.734V3.0625V139V139.5H469.234H557.027H557.527V139V121.812V121.312H557.027H489.266V77H540.426H540.926V76.5V60.0938V59.5938H540.426H489.266V20.5547H557.027H557.527V20.0547V3.0625V2.5625H557.027H469.234Z" stroke="black"/>
</svg>
